<?xml version="1.0" encoding="UTF-8" standalone="no"?>
<!-- Created with Inkscape (http://www.inkscape.org/) -->

<svg
   xmlns:dc="http://purl.org/dc/elements/1.1/"
   xmlns:cc="http://creativecommons.org/ns#"
   xmlns:rdf="http://www.w3.org/1999/02/22-rdf-syntax-ns#"
   xmlns:svg="http://www.w3.org/2000/svg"
   xmlns="http://www.w3.org/2000/svg"
   xmlns:sodipodi="http://sodipodi.sourceforge.net/DTD/sodipodi-0.dtd"
   xmlns:inkscape="http://www.inkscape.org/namespaces/inkscape"
   version="1.1"
   id="svg2"
   xml:space="preserve"
   width="478.43561"
   height="337.72345"
   viewBox="0 0 478.43561 337.72345"
   sodipodi:docname="Re0001-b.svg"
   inkscape:version="0.92.3 (2405546, 2018-03-11)"><metadata
     id="metadata8"><rdf:RDF><cc:Work
         rdf:about=""><dc:format>image/svg+xml</dc:format><dc:type
           rdf:resource="http://purl.org/dc/dcmitype/StillImage" /><dc:title></dc:title></cc:Work></rdf:RDF></metadata><defs
     id="defs6" /><sodipodi:namedview
     pagecolor="#ffffff"
     bordercolor="#666666"
     borderopacity="1"
     objecttolerance="10"
     gridtolerance="10"
     guidetolerance="10"
     inkscape:pageopacity="0"
     inkscape:pageshadow="2"
     inkscape:window-width="1853"
     inkscape:window-height="1025"
     id="namedview4"
     showgrid="false"
     fit-margin-top="0"
     fit-margin-left="0"
     fit-margin-right="0"
     fit-margin-bottom="0"
     inkscape:zoom="1.9866333"
     inkscape:cx="260.53279"
     inkscape:cy="181.45455"
     inkscape:window-x="67"
     inkscape:window-y="27"
     inkscape:window-maximized="1"
     inkscape:current-layer="g10" /><g
     id="g10"
     inkscape:groupmode="layer"
     inkscape:label="ink_ext_XXXXXX"
     transform="matrix(1.3333333,0,0,-1.3333333,17.114382,325.6427)"><g
       id="g12"
       transform="scale(0.1)"><path
         d="M 441,288 H 3437.5"
         style="fill:none;stroke:#000000;stroke-width:0.625;stroke-linecap:butt;stroke-linejoin:miter;stroke-miterlimit:3.79999995;stroke-dasharray:5, 10;stroke-dashoffset:0;stroke-opacity:1"
         id="path14"
         inkscape:connector-curvature="0" /><path
         d="m 441,288 h 31.5 m 2965,0 H 3406"
         style="fill:none;stroke:#000000;stroke-width:2.5;stroke-linecap:butt;stroke-linejoin:miter;stroke-miterlimit:3.79999995;stroke-dasharray:none;stroke-opacity:1"
         id="path16"
         inkscape:connector-curvature="0" /><g
         id="g18"
         transform="scale(10)"><text
           transform="matrix(1,0,0,-1,34.2,25.8)"
           style="font-variant:normal;font-weight:normal;font-size:9px;font-family:'Times New Roman';-inkscape-font-specification:Times-New-Roman;writing-mode:lr-tb;fill:#000000;fill-opacity:1;fill-rule:nonzero;stroke:none"
           id="text22"><tspan
             x="0"
             y="0"
             id="tspan20">0</tspan></text>
</g><path
         d="M 441,712.5 H 3437.5"
         style="fill:none;stroke:#000000;stroke-width:0.625;stroke-linecap:butt;stroke-linejoin:miter;stroke-miterlimit:3.79999995;stroke-dasharray:5, 10;stroke-dashoffset:0;stroke-opacity:1"
         id="path24"
         inkscape:connector-curvature="0" /><path
         d="m 441,712.5 h 31.5 m 2965,0 H 3406"
         style="fill:none;stroke:#000000;stroke-width:2.5;stroke-linecap:butt;stroke-linejoin:miter;stroke-miterlimit:3.79999995;stroke-dasharray:none;stroke-opacity:1"
         id="path26"
         inkscape:connector-curvature="0" /><g
         id="g28"
         transform="scale(10)"><text
           transform="matrix(1,0,0,-1,27.45,68.25)"
           style="font-variant:normal;font-weight:normal;font-size:9px;font-family:'Times New Roman';-inkscape-font-specification:Times-New-Roman;writing-mode:lr-tb;fill:#000000;fill-opacity:1;fill-rule:nonzero;stroke:none"
           id="text32"><tspan
             x="0 4.5 6.75"
             y="0"
             sodipodi:role="line"
             id="tspan30">0.2</tspan></text>
</g><path
         d="M 441,1137.5 H 3437.5"
         style="fill:none;stroke:#000000;stroke-width:0.625;stroke-linecap:butt;stroke-linejoin:miter;stroke-miterlimit:3.79999995;stroke-dasharray:5, 10;stroke-dashoffset:0;stroke-opacity:1"
         id="path34"
         inkscape:connector-curvature="0" /><path
         d="m 441,1137.5 h 31.5 m 2965,0 H 3406"
         style="fill:none;stroke:#000000;stroke-width:2.5;stroke-linecap:butt;stroke-linejoin:miter;stroke-miterlimit:3.79999995;stroke-dasharray:none;stroke-opacity:1"
         id="path36"
         inkscape:connector-curvature="0" /><g
         id="g38"
         transform="scale(10)"><text
           transform="matrix(1,0,0,-1,27.45,110.75)"
           style="font-variant:normal;font-weight:normal;font-size:9px;font-family:'Times New Roman';-inkscape-font-specification:Times-New-Roman;writing-mode:lr-tb;fill:#000000;fill-opacity:1;fill-rule:nonzero;stroke:none"
           id="text42"><tspan
             x="0 4.5 6.75"
             y="0"
             sodipodi:role="line"
             id="tspan40">0.4</tspan></text>
</g><path
         d="M 441,1562 H 3437.5"
         style="fill:none;stroke:#000000;stroke-width:0.625;stroke-linecap:butt;stroke-linejoin:miter;stroke-miterlimit:3.79999995;stroke-dasharray:5, 10;stroke-dashoffset:0;stroke-opacity:1"
         id="path44"
         inkscape:connector-curvature="0" /><path
         d="m 441,1562 h 31.5 m 2965,0 H 3406"
         style="fill:none;stroke:#000000;stroke-width:2.5;stroke-linecap:butt;stroke-linejoin:miter;stroke-miterlimit:3.79999995;stroke-dasharray:none;stroke-opacity:1"
         id="path46"
         inkscape:connector-curvature="0" /><g
         id="g48"
         transform="scale(10)"><text
           transform="matrix(1,0,0,-1,27.45,153.2)"
           style="font-variant:normal;font-weight:normal;font-size:9px;font-family:'Times New Roman';-inkscape-font-specification:Times-New-Roman;writing-mode:lr-tb;fill:#000000;fill-opacity:1;fill-rule:nonzero;stroke:none"
           id="text52"><tspan
             x="0 4.5 6.75"
             y="0"
             sodipodi:role="line"
             id="tspan50">0.6</tspan></text>
</g><path
         d="M 441,1987 H 3437.5"
         style="fill:none;stroke:#000000;stroke-width:0.625;stroke-linecap:butt;stroke-linejoin:miter;stroke-miterlimit:3.79999995;stroke-dasharray:5, 10;stroke-dashoffset:0;stroke-opacity:1"
         id="path54"
         inkscape:connector-curvature="0" /><path
         d="m 441,1987 h 31.5 m 2965,0 H 3406"
         style="fill:none;stroke:#000000;stroke-width:2.5;stroke-linecap:butt;stroke-linejoin:miter;stroke-miterlimit:3.79999995;stroke-dasharray:none;stroke-opacity:1"
         id="path56"
         inkscape:connector-curvature="0" /><g
         id="g58"
         transform="scale(10)"><text
           transform="matrix(1,0,0,-1,27.45,195.7)"
           style="font-variant:normal;font-weight:normal;font-size:9px;font-family:'Times New Roman';-inkscape-font-specification:Times-New-Roman;writing-mode:lr-tb;fill:#000000;fill-opacity:1;fill-rule:nonzero;stroke:none"
           id="text62"><tspan
             x="0 4.5 6.75"
             y="0"
             sodipodi:role="line"
             id="tspan60">0.8</tspan></text>
</g><path
         d="M 441,2411.5 H 3437.5"
         style="fill:none;stroke:#000000;stroke-width:0.625;stroke-linecap:butt;stroke-linejoin:miter;stroke-miterlimit:3.79999995;stroke-dasharray:5, 10;stroke-dashoffset:0;stroke-opacity:1"
         id="path64"
         inkscape:connector-curvature="0" /><path
         d="m 441,2411.5 h 31.5 m 2965,0 H 3406"
         style="fill:none;stroke:#000000;stroke-width:2.5;stroke-linecap:butt;stroke-linejoin:miter;stroke-miterlimit:3.79999995;stroke-dasharray:none;stroke-opacity:1"
         id="path66"
         inkscape:connector-curvature="0" /><g
         id="g68"
         transform="scale(10)"><text
           transform="matrix(1,0,0,-1,34.2,238.15)"
           style="font-variant:normal;font-weight:normal;font-size:9px;font-family:'Times New Roman';-inkscape-font-specification:Times-New-Roman;writing-mode:lr-tb;fill:#000000;fill-opacity:1;fill-rule:nonzero;stroke:none"
           id="text72"><tspan
             x="0"
             y="0"
             id="tspan70">1</tspan></text>
</g><path
         d="M 441,288 V 2411.5"
         style="fill:none;stroke:#000000;stroke-width:0.625;stroke-linecap:butt;stroke-linejoin:miter;stroke-miterlimit:3.79999995;stroke-dasharray:5, 10;stroke-dashoffset:0;stroke-opacity:1"
         id="path74"
         inkscape:connector-curvature="0" /><path
         d="m 441,288 v 31.5 m 0,2092 V 2380"
         style="fill:none;stroke:#000000;stroke-width:2.5;stroke-linecap:butt;stroke-linejoin:miter;stroke-miterlimit:3.79999995;stroke-dasharray:none;stroke-opacity:1"
         id="path76"
         inkscape:connector-curvature="0" /><g
         id="g78"
         transform="scale(10)"><text
           transform="matrix(1,0,0,-1,41.85,16.8)"
           style="font-variant:normal;font-weight:normal;font-size:9px;font-family:'Times New Roman';-inkscape-font-specification:Times-New-Roman;writing-mode:lr-tb;fill:#000000;fill-opacity:1;fill-rule:nonzero;stroke:none"
           id="text82"><tspan
             x="0"
             y="0"
             id="tspan80">0</tspan></text>
</g><path
         d="M 1190,288 V 2411.5"
         style="fill:none;stroke:#000000;stroke-width:0.625;stroke-linecap:butt;stroke-linejoin:miter;stroke-miterlimit:3.79999995;stroke-dasharray:5, 10;stroke-dashoffset:0;stroke-opacity:1"
         id="path84"
         inkscape:connector-curvature="0" /><path
         d="m 1190,288 v 31.5 m 0,2092 V 2380"
         style="fill:none;stroke:#000000;stroke-width:2.5;stroke-linecap:butt;stroke-linejoin:miter;stroke-miterlimit:3.79999995;stroke-dasharray:none;stroke-opacity:1"
         id="path86"
         inkscape:connector-curvature="0" /><g
         id="g88"
         transform="scale(10)"><text
           transform="matrix(1,0,0,-1,113.029,16.8)"
           style="font-variant:normal;font-weight:normal;font-size:9px;font-family:Symbol;-inkscape-font-specification:Symbol;writing-mode:lr-tb;fill:#000000;fill-opacity:1;fill-rule:nonzero;stroke:none"
           id="text92"><tspan
             x="0"
             y="0"
             id="tspan90">π</tspan></text>
<text
           transform="matrix(1,0,0,-1,117.97002,16.8)"
           style="font-variant:normal;font-weight:normal;font-size:9px;font-family:'Times New Roman';-inkscape-font-specification:Times-New-Roman;writing-mode:lr-tb;fill:#000000;fill-opacity:1;fill-rule:nonzero;stroke:none"
           id="text96"><tspan
             x="0 2.5020001"
             y="0"
             sodipodi:role="line"
             id="tspan94">/4</tspan></text>
</g><path
         d="M 1939.5,288 V 2411.5"
         style="fill:none;stroke:#000000;stroke-width:0.625;stroke-linecap:butt;stroke-linejoin:miter;stroke-miterlimit:3.79999995;stroke-dasharray:5, 10;stroke-dashoffset:0;stroke-opacity:1"
         id="path98"
         inkscape:connector-curvature="0" /><path
         d="m 1939.5,288 v 31.5 m 0,2092 V 2380"
         style="fill:none;stroke:#000000;stroke-width:2.5;stroke-linecap:butt;stroke-linejoin:miter;stroke-miterlimit:3.79999995;stroke-dasharray:none;stroke-opacity:1"
         id="path100"
         inkscape:connector-curvature="0" /><g
         id="g102"
         transform="scale(10)"><text
           transform="matrix(1,0,0,-1,187.979,16.8)"
           style="font-variant:normal;font-weight:normal;font-size:9px;font-family:Symbol;-inkscape-font-specification:Symbol;writing-mode:lr-tb;fill:#000000;fill-opacity:1;fill-rule:nonzero;stroke:none"
           id="text106"><tspan
             x="0"
             y="0"
             id="tspan104">π</tspan></text>
<text
           transform="matrix(1,0,0,-1,192.92002,16.8)"
           style="font-variant:normal;font-weight:normal;font-size:9px;font-family:'Times New Roman';-inkscape-font-specification:Times-New-Roman;writing-mode:lr-tb;fill:#000000;fill-opacity:1;fill-rule:nonzero;stroke:none"
           id="text110"><tspan
             x="0 2.5020001"
             y="0"
             sodipodi:role="line"
             id="tspan108">/2</tspan></text>
</g><path
         d="m 2688.5,288 v 31.5 m 0,270 v 1822"
         style="fill:none;stroke:#000000;stroke-width:0.625;stroke-linecap:butt;stroke-linejoin:miter;stroke-miterlimit:3.79999995;stroke-dasharray:5, 10;stroke-dashoffset:0;stroke-opacity:1"
         id="path112"
         inkscape:connector-curvature="0" /><path
         d="m 2688.5,288 v 31.5 m 0,2092 V 2380"
         style="fill:none;stroke:#000000;stroke-width:2.5;stroke-linecap:butt;stroke-linejoin:miter;stroke-miterlimit:3.79999995;stroke-dasharray:none;stroke-opacity:1"
         id="path114"
         inkscape:connector-curvature="0" /><g
         id="g116"
         transform="scale(10)"><text
           transform="matrix(1,0,0,-1,260.629,16.8)"
           style="font-variant:normal;font-weight:normal;font-size:9px;font-family:'Times New Roman';-inkscape-font-specification:Times-New-Roman;writing-mode:lr-tb;fill:#000000;fill-opacity:1;fill-rule:nonzero;stroke:none"
           id="text120"><tspan
             x="0"
             y="0"
             id="tspan118">3</tspan></text>
<text
           transform="matrix(1,0,0,-1,265.129,16.8)"
           style="font-variant:normal;font-weight:normal;font-size:9px;font-family:Symbol;-inkscape-font-specification:Symbol;writing-mode:lr-tb;fill:#000000;fill-opacity:1;fill-rule:nonzero;stroke:none"
           id="text124"><tspan
             x="0"
             y="0"
             id="tspan122">π</tspan></text>
<text
           transform="matrix(1,0,0,-1,270.07002,16.8)"
           style="font-variant:normal;font-weight:normal;font-size:9px;font-family:'Times New Roman';-inkscape-font-specification:Times-New-Roman;writing-mode:lr-tb;fill:#000000;fill-opacity:1;fill-rule:nonzero;stroke:none"
           id="text128"><tspan
             x="0 2.5020001"
             y="0"
             sodipodi:role="line"
             id="tspan126">/4</tspan></text>
</g><path
         d="M 3437.5,288 V 2411.5"
         style="fill:none;stroke:#000000;stroke-width:0.625;stroke-linecap:butt;stroke-linejoin:miter;stroke-miterlimit:3.79999995;stroke-dasharray:5, 10;stroke-dashoffset:0;stroke-opacity:1"
         id="path130"
         inkscape:connector-curvature="0" /><path
         d="m 3437.5,288 v 31.5 m 0,2092 V 2380"
         style="fill:none;stroke:#000000;stroke-width:2.5;stroke-linecap:butt;stroke-linejoin:miter;stroke-miterlimit:3.79999995;stroke-dasharray:none;stroke-opacity:1"
         id="path132"
         inkscape:connector-curvature="0" /><g
         id="g134"
         transform="scale(10)"><text
           transform="matrix(1,0,0,-1,341.28,16.8)"
           style="font-variant:normal;font-weight:normal;font-size:9px;font-family:Symbol;-inkscape-font-specification:Symbol;writing-mode:lr-tb;fill:#000000;fill-opacity:1;fill-rule:nonzero;stroke:none"
           id="text138"><tspan
             x="0"
             y="0"
             id="tspan136">π</tspan></text>
</g><path
         d="M 441,2411.5 V 288 h 2996.5 v 2123.5 z"
         style="fill:none;stroke:#000000;stroke-width:5;stroke-linecap:butt;stroke-linejoin:miter;stroke-miterlimit:3.79999995;stroke-dasharray:none;stroke-opacity:1"
         id="path140"
         inkscape:connector-curvature="0" /><g
         id="g142"
         transform="scale(10)"><text
           transform="matrix(0,1,1,0,10.2,91.4906)"
           style="font-variant:normal;font-weight:normal;font-size:9px;font-family:'Times New Roman';-inkscape-font-specification:Times-New-Roman;writing-mode:lr-tb;fill:#000000;fill-opacity:1;fill-rule:nonzero;stroke:none"
           id="text146"><tspan
             x="0 6.4980001 13.5 18 20.502001 23.004 26.000999 28.503 32.499001 36.494999 38.997002 41.499001 45.999001 50.499001 52.749001 55.745998 59.742001 63.737999 66.239998 70.739998 73.737 75.987"
             y="0"
             sodipodi:role="line"
             id="tspan144">Amplification factor [</tspan></text>
<text
           transform="matrix(0,1,1,0,10.2,170.4746)"
           style="font-variant:normal;font-weight:normal;font-size:9px;font-family:Symbol;-inkscape-font-specification:Symbol;writing-mode:lr-tb;fill:#000000;fill-opacity:1;fill-rule:nonzero;stroke:none"
           id="text150"><tspan
             x="0"
             y="0"
             id="tspan148">β</tspan></text>
<text
           transform="matrix(0,1,1,0,10.2,175.41562)"
           style="font-variant:normal;font-weight:normal;font-size:9px;font-family:'Times New Roman';-inkscape-font-specification:Times-New-Roman;writing-mode:lr-tb;fill:#000000;fill-opacity:1;fill-rule:nonzero;stroke:none"
           id="text154"><tspan
             x="0"
             y="0"
             id="tspan152">]</tspan></text>
<text
           transform="matrix(1,0,0,-1,169.443,3.3)"
           style="font-variant:normal;font-weight:normal;font-size:9px;font-family:'Times New Roman';-inkscape-font-specification:Times-New-Roman;writing-mode:lr-tb;fill:#000000;fill-opacity:1;fill-rule:nonzero;stroke:none"
           id="text158"><tspan
             x="0 2.997 5.994 9.9899998 14.49 18.99 22.986 27.486 31.482 35.981998 38.231998"
             y="0"
             sodipodi:role="line"
             id="tspan156">frequency [</tspan></text>
<text
           transform="matrix(1,0,0,-1,210.6719,3.3)"
           style="font-variant:normal;font-weight:normal;font-size:9px;font-family:Symbol;-inkscape-font-specification:Symbol;writing-mode:lr-tb;fill:#000000;fill-opacity:1;fill-rule:nonzero;stroke:none"
           id="text162"><tspan
             x="0"
             y="0"
             id="tspan160">θ</tspan></text>
<text
           transform="matrix(1,0,0,-1,215.36096,3.3)"
           style="font-variant:normal;font-weight:normal;font-size:9px;font-family:'Times New Roman';-inkscape-font-specification:Times-New-Roman;writing-mode:lr-tb;fill:#000000;fill-opacity:1;fill-rule:nonzero;stroke:none"
           id="text168"><tspan
             x="0"
             y="0"
             id="tspan164">]</tspan><tspan
             x="55.435501 60.439499 63.436501 71.4375 76.441498 81.940498"
             y="-48.150002"
             sodipodi:role="line"
             id="tspan166">SIMPLE</tspan></text>
</g><path
         d="m 3082,544.5 h 247.5 m -2873.5,1520 29.5,-2 30,-4 30,-6 29.5,-8 30,-9.5 30,-11.5 29.5,-13 30,-14 30,-16 29.5,-17 30,-18 29.5,-19 30,-19.5 30,-20.5 29.5,-21 30,-21 30,-21.5 29.5,-22 30,-22 29.5,-22 30,-21.5 30,-22 29.5,-21.5 30,-21 30,-21 29.5,-21 30,-20 30,-20 29.5,-19.5 30,-19.5 29.5,-18.5 30,-18.5 30,-17.5 29.5,-17.5 30,-17 30,-16.5 29.5,-16 30,-15.5 30,-15 29.5,-14.5 30,-14.5 29.5,-13.5 30,-13.5 30,-13 29.5,-12 30,22.5 29.5,121 30,58 30,42.5 29.5,33.5 30,28 30,24 29.5,20.5 30,17.5 30,15.5 29.5,13.5 30,11.5 29.5,10.5 30,9 30,8 29.5,6.5 30,6 30,5.5 29.5,4.5 30,3.5 30,3 29.5,3 30,2 29.5,1.5 30,1.5 30,1 29.5,0.5 30,0.5 h 29.5 30 l 30,-0.5 29.5,-0.5 30,-0.5 30,-0.5 29.5,-1 30,-1 30,-1 29.5,-0.5 30,-1 30,-1 29.5,-1 30,-1 29.5,-1 30,-1 30,-1 29.5,-1 30,-0.5 30,-0.5 29.5,-1 30,-0.5 30,-0.5 h 29.5 l 30,-0.5 h 29.5 30"
         style="fill:none;stroke:#000000;stroke-width:5;stroke-linecap:butt;stroke-linejoin:miter;stroke-miterlimit:3.79999995;stroke-dasharray:60, 20, 10, 20;stroke-dashoffset:0;stroke-opacity:1"
         id="path170"
         inkscape:connector-curvature="0" /><g
         id="g172"
         transform="scale(10)"><text
           transform="matrix(1,0,0,-1,264.794,42.45)"
           style="font-variant:normal;font-weight:normal;font-size:9px;font-family:'Times New Roman';-inkscape-font-specification:Times-New-Roman;writing-mode:lr-tb;fill:#000000;fill-opacity:1;fill-rule:nonzero;stroke:none"
           id="text176"><tspan
             x="0 5.0040002 8.0010004 16.002001 21.006001 26.504999 32.004002"
             y="0"
             sodipodi:role="line"
             id="tspan174">SIMPLEC</tspan></text>
</g><path
         d="m 3082,454.5 h 247.5 M 456,288.5 l 29.5,6 30,11.5 30,17.5 29.5,22.5 30,27 30,32 29.5,36 30,39.5 30,42 29.5,45 30,46.5 29.5,47.5 30,49 30,48.5 29.5,49 30,48.5 30,47 29.5,46.5 30,44.5 29.5,43 30,41 30,38.5 29.5,37 30,34.5 30,32 29.5,29.5 30,27 30,25 29.5,22.5 30,20 29.5,17.5 30,15.5 30,13 29.5,11 30,9 30,7 29.5,5 30,3 30,1 h 29.5 l 30,-2 29.5,-3.5 30,-5 30,-6.5 29.5,-8 30,-8.5 29.5,-10.5 30,-11 30,-12 29.5,-13 30,-14 30,-14.5 29.5,-15.5 30,-16 30,-17 29.5,-17 30,-17.5 29.5,-18 30,-18.5 30,-19 29.5,-18.5 30,-19.5 30,-19 29.5,-19.5 30,-19 30,-19.5 29.5,-19.5 30,-19 29.5,-19 30,-19 30,-18.5 29.5,-18.5 30,-18 29.5,-17.5 30,-17.5 30,-17 29.5,-16 30,-16 30,-15.5 29.5,-15 30,-14.5 30,-14 29.5,-13 30,-12.5 30,-12 29.5,-11.5 30,-10.5 29.5,-9.5 30,-9.5 30,-8 29.5,-8 30,-6.5 30,-6.5 29.5,-5 30,-4.5 30,-3.5 29.5,-3 30,-2 29.5,-1.5 30,-0.5"
         style="fill:none;stroke:#000000;stroke-width:5;stroke-linecap:butt;stroke-linejoin:miter;stroke-miterlimit:3.79999995;stroke-dasharray:20, 30;stroke-dashoffset:0;stroke-opacity:1"
         id="path178"
         inkscape:connector-curvature="0" /><g
         id="g180"
         transform="scale(10)"><text
           transform="matrix(1,0,0,-1,259.8,33.45)"
           style="font-variant:normal;font-weight:normal;font-size:9px;font-family:'Times New Roman';-inkscape-font-specification:Times-New-Roman;writing-mode:lr-tb;fill:#000000;fill-opacity:1;fill-rule:nonzero;stroke:none"
           id="text184"><tspan
             x="0 6.0029998 12.501 20.502001 25.506001 31.004999 36.504002"
             y="0"
             sodipodi:role="line"
             id="tspan182">COMPLEX</tspan></text>
</g><path
         d="m 3082,364.5 h 247.5 M 456,288 l 29.5,1 30,2.5 30,3 29.5,4 30,5.5 30,7 29.5,7.5 30,9.5 30,10.5 29.5,12 30,13.5 29.5,15 30,16.5 30,18 29.5,19.5 30,21 30,22.5 29.5,24 30,25 29.5,26.5 30,27.5 30,29 29.5,29.5 30,30.5 30,31.5 29.5,32 30,32.5 30,33 29.5,33 30,33 29.5,33 30,33 30,32.5 29.5,32 30,31.5 30,30.5 29.5,30 30,29 30,28 29.5,26.5 30,25.5 29.5,24 30,22.5 30,21 29.5,19 30,18 29.5,16 30,14 30,12 29.5,10.5 30,8.5 30,7 29.5,4.5 30,3 30,0.5 29.5,-1 30,-2.5 29.5,-5 30,-6.5 30,-8 29.5,-10 30,-11.5 30,-13 29.5,-14.5 30,-16 30,-17 29.5,-18.5 30,-19.5 29.5,-21 30,-21 30,-22.5 29.5,-23 30,-23.5 29.5,-24 30,-24.5 30,-24.5 29.5,-25 30,-24.5 30,-24.5 29.5,-24.5 30,-24 30,-23.5 29.5,-23 30,-22 30,-21.5 29.5,-21 30,-19.5 29.5,-18.5 30,-17.5 30,-16 29.5,-15 30,-13.5 30,-12 29.5,-10.5 30,-9 30,-7.5 29.5,-5.5 30,-4.5 29.5,-2.5 30,-1"
         style="fill:none;stroke:#000000;stroke-width:5;stroke-linecap:butt;stroke-linejoin:miter;stroke-miterlimit:3.79999995;stroke-dasharray:none;stroke-opacity:1"
         id="path186"
         inkscape:connector-curvature="0" /><path
         d="M 441,2411.5 V 288 h 2996.5 v 2123.5 z"
         style="fill:none;stroke:#000000;stroke-width:5;stroke-linecap:butt;stroke-linejoin:miter;stroke-miterlimit:3.79999995;stroke-dasharray:none;stroke-opacity:1"
         id="path188"
         inkscape:connector-curvature="0" /></g><rect
       id="rect190"
       width="30.201849"
       height="117.40969"
       x="-12.835787"
       y="-191.40424"
       transform="scale(1,-1)"
       style="fill:#000000;fill-opacity:0;stroke:none;stroke-width:0.75;stroke-opacity:1" /><rect
       id="rect192"
       width="93.62574"
       height="20.763771"
       x="144.21384"
       y="-11.703213"
       transform="scale(1,-1)"
       style="fill:#000000;fill-opacity:0;stroke-width:0.75" /><rect
       style="fill:#ffffff;fill-opacity:1;stroke:#ffffff;stroke-width:0.55654711;stroke-opacity:1"
       id="rect999"
       width="14.16181"
       height="101.74717"
       x="1.4133666"
       y="-182.4404"
       transform="scale(1,-1)" /><rect
       style="fill:#ffffff;fill-opacity:1;stroke:#ffffff;stroke-width:0.75;stroke-opacity:1"
       id="rect4704"
       width="66.066551"
       height="12.835787"
       x="160.06981"
       y="-10.948177"
       transform="scale(1,-1)" /><flowRoot
       xml:space="preserve"
       id="flowRoot4706"
       style="font-style:normal;font-variant:normal;font-weight:normal;font-stretch:normal;font-size:32px;line-height:1.25;font-family:'Times New Roman';-inkscape-font-specification:'Times New Roman, ';letter-spacing:0px;word-spacing:0px;fill:#000000;fill-opacity:1;stroke:none"
       transform="matrix(0,0.75000002,0.75000002,0,-81.49098,196.32111)"><flowRegion
         id="flowRegion4708"
         style="font-style:normal;font-variant:normal;font-weight:normal;font-stretch:normal;font-size:32px;font-family:'Times New Roman';-inkscape-font-specification:'Times New Roman, '"><rect
           id="rect4710"
           width="345.81119"
           height="43.289322"
           x="-166.11017"
           y="106.46595"
           style="font-style:normal;font-variant:normal;font-weight:normal;font-stretch:normal;font-size:32px;font-family:'Times New Roman';-inkscape-font-specification:'Times New Roman, '" /></flowRegion><flowPara
         id="flowPara4712"
         style="font-size:18.66666603px">Amplification factor <flowSpan
   style="font-style:italic;font-variant:normal;font-weight:normal;font-stretch:normal;font-size:18.66666603px;font-family:'Times New Roman';-inkscape-font-specification:'Times New Roman, Italic'"
   id="flowSpan4714">β</flowSpan> </flowPara></flowRoot><flowRoot
       xml:space="preserve"
       id="flowRoot4706-3"
       style="font-style:normal;font-variant:normal;font-weight:normal;font-stretch:normal;font-size:32px;line-height:1.25;font-family:'Times New Roman';-inkscape-font-specification:'Times New Roman, ';letter-spacing:0px;word-spacing:0px;fill:#000000;fill-opacity:1;stroke:none"
       transform="matrix(0.75000002,0,0,-0.75000002,288.1827,102.1889)"><flowRegion
         id="flowRegion4708-6"
         style="font-style:normal;font-variant:normal;font-weight:normal;font-stretch:normal;font-size:32px;font-family:'Times New Roman';-inkscape-font-specification:'Times New Roman, '"><rect
           id="rect4710-7"
           width="345.81119"
           height="43.289322"
           x="-166.11017"
           y="106.46595"
           style="font-style:normal;font-variant:normal;font-weight:normal;font-stretch:normal;font-size:32px;font-family:'Times New Roman';-inkscape-font-specification:'Times New Roman, '" /></flowRegion><flowPara
         id="flowPara4712-5"
         style="font-size:18.66666603px">Frequency <flowSpan
   style="font-style:italic;font-variant:normal;font-weight:normal;font-stretch:normal;font-size:18.66666603px;font-family:'Times New Roman';-inkscape-font-specification:'Times New Roman, Italic'"
   id="flowSpan4743">θ</flowSpan></flowPara></flowRoot></g></svg>